<?xml version="1.0" encoding="UTF-8"?>
<svg version="1.1" viewBox="0 0 2000 2000" width="1280" height="1280" xmlns="http://www.w3.org/2000/svg">
<path transform="translate(873,798)" d="m0 0 4 2 10 8 22 15 22 12 21 8 22 6 26 4 11 1h54l69-6 41-4 42-2h33l29 2 30 5 24 6 24 8 21 9 20 10 21 12 10 6 2 4-1 79-1 1h-10l-2-2v-34h-15l-28-1v36l-1 1h-10l-2-2v-82l1-1h11l1 1v36h43v-39l-6-1-11-5-23-7-23-4-10-1h-41l-37 3-77 9-44 4h-65l-33-5-29-6-24-8-26-11-21-11-23-14-17-12-10-8-11-9-13-12z" fill="#F6D065"/>
<path transform="translate(1041,683)" d="m0 0 5 5 10 13 4 4v2l4 2 10 10 13 10 18 11 21 10 24 9 27 8 52 13 26 6 24 7 40 14 18 8 19 10 21 14 14 11 12 11 16 16 10 13 8 10-1 2-13-13-14-11-15-10-21-10-19-7-35-10-57-12-38-9-36-12-25-10-16-8-16-9-15-11-14-11-12-11-18-18-10-13-11-15-10-16z" fill="#F6D065"/>
<path transform="translate(1204,636)" d="m0 0 3 4 10 26 8 14 8 10 12 14 12 11 20 15 24 16 20 13 24 16 14 10 12 9 12 11 20 20 11 14 11 18 13 27 4 12-1 3-8-14-10-14-11-12-8-8-14-11-15-10-23-14-19-12-21-13-14-10-18-14-12-11-17-17-12-16-12-20-8-16-8-21-6-23z" fill="#F6D065"/>
<path transform="translate(1030,897)" d="m0 0 2 1v85l-1 1h-10l-1-1v-51l-4 4-13 19-8 11-5 6-4-2-8-10-13-18-5-7v-2h-2l1 6v44l-1 1h-10l-1-1-1-48v-37l4 1 13 18 14 20 12 17 4-5 14-20 20-28z" fill="#F6D065"/>
<path transform="translate(569,899)" d="m0 0h31l10 3 6 5 3 7v14l-3 6-4 5 1 3 8 7 3 7v9l-5 10-6 5-8 3-31 1-5-2zm13 12v25h16l5-3 3-5 1-8-3-6-6-3zm0 37-1 20 1 5h18l7-3 3-3 1-3v-7l-3-5-5-3-4-1z" fill="#F6D065"/>
<path transform="translate(679,898)" d="m0 0h16l10 3 10 7 8 8 6 12 2 9v10l-3 11-6 10-5 5-7 6-9 4-4 1h-21l-11-4-9-7-7-9-4-9-1-4v-19l4-11 8-11 11-8 7-3zm1 12-10 4-8 8-5 10-1 3v14l4 10 5 6 9 6 5 2h17l10-5 8-9 3-7 1-5v-11l-4-11-7-8-5-4-7-3z" fill="#F6D065"/>
<path transform="translate(1200,898)" d="m0 0h13l11 3 8 4 9 8 7 12 3 10v13l-3 10-6 10-5 5-7 6-8 4-12 2-15-1-10-4-9-7-8-11-4-11v-18l4-12 7-9 9-8 11-5zm-1 12-10 5-7 7-5 9-1 4v14l4 10 4 5 8 6 7 3h17l10-5 8-9 4-11v-13l-5-12-9-9-10-4z" fill="#F6D065"/>
<path transform="translate(785,898)" d="m0 0h16l11 4 9 6 5 5 6 8 4 11v19l-4 11-6 9-8 7-11 5-5 1h-20l-9-3-11-8-8-11-4-9-1-5v-11l3-11 4-8 9-10 8-6zm0 12-9 4-6 5-6 10-2 8v10l3 10 6 8 8 6 6 2h16l8-3 9-8 5-10 1-4v-12l-3-9-7-10-10-6-3-1z" fill="#F6D065"/>
<path transform="translate(1094,898)" d="m0 0h11l14 4 9 6 8 8 6 12 2 10-1 14-4 10-6 8-5 5-6 5-11 4-7 1h-10l-12-3-11-7-8-9-5-10-2-8v-12l4-13 6-9 8-8 14-7zm2 11-10 3-10 9-5 8-2 7v12l4 11 5 6 8 6 6 2h16l8-3 10-9 4-8 1-4v-15l-4-9-6-8-9-6-8-2z" fill="#F6D065"/>
<path transform="translate(921,898)" d="m0 0 3 1-2 4-19 19-1 2h-2l-2 4-7 7 2 4 32 42v3h-11l-4-2-9-11-14-18-6-8-2-1-2 4-2 2-1 33-1 1h-10l-2-3v-82h13l1 35 13-13 14-16h2l2-4 3-2z" fill="#F6D065"/>
<path transform="translate(1304,898)" d="m0 0h16l13 4 3 2-1 7-2 4-3 1-10-5h-15l-10 5-8 9-3 8-1 11 2 12 6 8 7 6 6 2h17l10-4 4 1 2 9-6 4-7 2-16 1-14-3-11-7-6-7-6-12-2-8v-12l4-14 7-11 8-7 11-5z" fill="#F6D065"/>
<path transform="translate(873,798)" d="m0 0 4 2 10 8 22 15v3l5 3-1 3-14-10-14-12-12-11z" fill="#FDFDFB"/>
<path transform="translate(1041,683)" d="m0 0 5 5 10 13 1 2-4 2-12-19z" fill="#FEFEFE"/>
<path transform="translate(1204,636)" d="m0 0 3 4 5 14-1 5h-2l-5-20z" fill="#FEFEFE"/>
<path transform="translate(1424,885)" d="m0 0 5 5 8 10-1 2-15-15z" fill="#FDFDFB"/>
<path transform="translate(1433,884)" d="m0 0h5l4 12-1 3-8-14z" fill="#FEFEFE"/>
<path transform="translate(1438,903)" d="m0 0 2 1-2 1z" fill="#FEFEFE"/>
<path transform="translate(1437,902)" d="m0 0" fill="#FEFEFE"/>
</svg>
