<svg width="19" height="18" viewBox="0 0 19 18" fill="none" xmlns="http://www.w3.org/2000/svg">
<path d="M9.33079 1.61684C11.7361 1.61684 12.0149 1.6248 12.9627 1.67259C13.8388 1.71241 14.3167 1.85578 14.6353 1.98321C15.0574 2.14251 15.3521 2.34163 15.6707 2.65225C15.9893 2.97084 16.1804 3.26553 16.3397 3.68766C16.4592 4.00625 16.6105 4.48413 16.6504 5.36025C16.6902 6.30805 16.7061 6.59479 16.7061 8.99217C16.7061 11.3895 16.6982 11.6763 16.6504 12.6241C16.6105 13.5002 16.4672 13.9781 16.3397 14.2967C16.1804 14.7188 15.9813 15.0135 15.6707 15.3321C15.3601 15.6507 15.0574 15.8418 14.6353 16.0011C14.3167 16.1206 13.8388 16.2719 12.9627 16.3117C12.0149 16.3516 11.7282 16.3675 9.33079 16.3675C6.93341 16.3675 6.64668 16.3595 5.69888 16.3117C4.82276 16.2719 4.34488 16.1286 4.02629 16.0011C3.60416 15.8418 3.30946 15.6427 2.99087 15.3321C2.67229 15.0135 2.48113 14.7188 2.32184 14.2967C2.20237 13.9781 2.05104 13.5002 2.01121 12.6241C1.97139 11.6763 1.95546 11.3895 1.95546 8.99217C1.95546 6.59479 1.96343 6.30805 2.01121 5.36025C2.05104 4.48413 2.1944 4.00625 2.32184 3.68766C2.48113 3.26553 2.68025 2.97084 2.99087 2.65225C3.30946 2.33366 3.60416 2.14251 4.02629 1.98321C4.34488 1.86374 4.82276 1.71241 5.69888 1.67259C6.64668 1.63277 6.93341 1.61684 9.33079 1.61684ZM9.33079 0C6.88562 0 6.58296 0.00796448 5.61923 0.0557528C4.66347 0.0955764 4.01036 0.25487 3.4369 0.477882C2.84751 0.708859 2.34573 1.01152 1.84396 1.5133C1.34218 2.01508 1.03952 2.51685 0.808542 3.10624C0.585529 3.6797 0.434199 4.33281 0.394376 5.28857C0.346588 6.24434 0.338623 6.55496 0.338623 9.00013C0.338623 11.4453 0.346588 11.748 0.394376 12.7117C0.434199 13.6675 0.593494 14.3206 0.808542 14.894C1.03952 15.4834 1.34218 15.9852 1.84396 16.487C2.34573 16.9887 2.84751 17.2914 3.4369 17.5224C4.01036 17.7454 4.66347 17.8967 5.61923 17.9445C6.575 17.9843 6.88562 18.0003 9.33079 18.0003C11.776 18.0003 12.0786 17.9923 13.0423 17.9445C13.9981 17.9047 14.6512 17.7454 15.2247 17.5224C15.8141 17.2914 16.3158 16.9887 16.8176 16.487C17.3194 15.9852 17.6221 15.4834 17.853 14.894C18.0761 14.3206 18.2274 13.6675 18.2672 12.7117C18.307 11.7559 18.323 11.4453 18.323 9.00013C18.323 6.55496 18.315 6.2523 18.2672 5.28857C18.2274 4.33281 18.0681 3.6797 17.853 3.10624C17.6221 2.51685 17.3194 2.01508 16.8176 1.5133C16.3158 1.01152 15.8141 0.708859 15.2247 0.477882C14.6512 0.25487 13.9981 0.103541 13.0423 0.0557528C12.0866 0.0159292 11.776 0 9.33079 0Z" fill="white"/>
<path d="M9.33072 4.37268C6.78201 4.37268 4.71118 6.44351 4.71118 8.99222C4.71118 11.5409 6.78201 13.6118 9.33072 13.6118C11.8794 13.6118 13.9503 11.5409 13.9503 8.99222C13.9503 6.44351 11.8794 4.37268 9.33072 4.37268ZM9.33072 11.9869C7.67406 11.9869 6.33598 10.6409 6.33598 8.99222C6.33598 7.34352 7.68202 5.99748 9.33072 5.99748C10.9794 5.99748 12.3255 7.34352 12.3255 8.99222C12.3255 10.6409 10.9794 11.9869 9.33072 11.9869Z" fill="white"/>
<path d="M15.2086 4.1894C15.2086 4.78676 14.7228 5.27261 14.1254 5.27261C13.5281 5.27261 13.0422 4.78676 13.0422 4.1894C13.0422 3.59205 13.5281 3.1062 14.1254 3.1062C14.7228 3.1062 15.2086 3.59205 15.2086 4.1894Z" fill="white"/>
</svg>
