<svg width="100" height="89" viewBox="0 0 100 89" fill="none" xmlns="http://www.w3.org/2000/svg">
<path fill-rule="evenodd" clip-rule="evenodd" d="M64.8851 41.3929C57.2449 41.3929 51.0512 35.1993 51.0512 27.5591L51.0512 5.51946H95.2036V41.3929L64.8851 41.3929ZM4.13996 82.7857V82.786H95.2041V5.51946H95.2036V5.51917L51.0512 5.51917V5.51946H45.5317V5.51917L4.13892 5.51917L4.13892 41.3929H4.13996V46.9119H4.13892V82.7857H4.13996ZM4.13996 82.7857V46.9119H31.6979C39.3381 46.9119 45.5317 53.1055 45.5317 60.7458V82.7857H4.13996ZM4.13996 41.3929L31.6979 41.3929C39.3381 41.3929 45.5317 35.1993 45.5317 27.5591L45.5317 5.51946H4.13996V41.3929ZM51.0512 60.7458C51.0512 53.1055 57.2449 46.9119 64.8851 46.9119H95.2036V82.7857H51.0512V60.7458Z" fill="black" fill-opacity="0.2"/>
</svg>
