<svg width="380" height="224" viewBox="0 0 380 224" fill="none" xmlns="http://www.w3.org/2000/svg">
<path d="M138.719 204.041L94.0924 159.414L105.353 148.153C117.866 135.64 129.961 128.272 141.639 126.048C153.595 123.545 168.471 125.352 186.266 131.469L223.803 143.982C240.486 149.543 254.527 153.018 265.927 154.409C277.605 155.521 288.727 150.794 299.293 140.228C307.357 132.165 312.918 123.823 315.976 115.204C319.035 106.584 318.201 96.8523 313.474 86.0083C309.303 75.1644 300.127 62.6521 285.947 48.4716C269.82 32.3447 255.361 21.5008 242.571 15.9398C230.059 10.6568 218.381 9.82264 207.537 13.4373C196.693 17.052 185.571 24.5593 174.171 35.9593L167.915 42.2155L123.288 -2.41154L129.961 -9.08474C146.644 -25.7677 165.412 -37.0288 186.266 -42.8678C207.676 -48.7069 230.337 -47.7337 254.249 -39.9483C278.718 -32.1629 303.464 -15.7579 328.489 9.26656C351.289 32.0667 366.164 53.8936 373.116 74.7473C380.623 95.6011 381.596 115.204 376.035 133.555C371.03 151.906 361.298 168.311 346.84 182.77C333.772 195.838 319.869 204.18 305.132 207.794C290.952 211.409 276.771 212.243 262.591 210.297C248.41 208.35 234.925 205.153 222.134 200.704L187.1 187.358C177.925 184.299 170.556 183.326 164.995 184.438C159.712 185.272 154.429 188.331 149.146 193.614L138.719 204.041ZM51.1337 299.134L0.250564 248.25L61.9777 186.523L112.861 237.407L51.1337 299.134Z" fill="black" fill-opacity="0.2"/>
</svg>
