<svg width="66" height="48" viewBox="0 0 66 48" fill="none" xmlns="http://www.w3.org/2000/svg">
<path d="M51.2099 63.9224C48.1353 63.9224 45.5219 63.2152 43.3697 61.8009C41.2789 60.3866 39.6802 58.5111 38.5733 56.1744C37.5279 53.8377 37.0053 51.3165 37.0053 48.6109C37.0053 45.9053 37.5279 43.3841 38.5733 41.0474C39.6802 38.7107 41.2789 36.8352 43.3697 35.4209C45.5219 34.0066 48.1353 33.2994 51.2099 33.2994C54.346 33.2994 56.9594 34.0066 59.0501 35.4209C61.2023 36.8352 62.8011 38.7107 63.8465 41.0474C64.9533 43.3841 65.5068 45.9053 65.5068 48.6109C65.5068 51.3165 64.9533 53.8377 63.8465 56.1744C62.8011 58.5111 61.2023 60.3866 59.0501 61.8009C56.9594 63.2152 54.346 63.9224 51.2099 63.9224ZM14.4992 30.9012C11.3631 30.9012 8.74974 30.1941 6.65901 28.7798C4.56829 27.3654 2.9695 25.4899 1.86265 23.1533C0.755791 20.7551 0.202364 18.2339 0.202364 15.5898C0.202364 12.8226 0.755791 10.3014 1.86265 8.02625C2.9695 5.68956 4.56829 3.81405 6.65901 2.39974C8.74974 0.985426 11.3631 0.278269 14.4992 0.278269C17.6353 0.278269 20.2487 0.985426 22.3394 2.39974C24.4302 3.81405 25.9982 5.68956 27.0436 8.02625C28.1504 10.3014 28.7039 12.8226 28.7039 15.5898C28.7039 18.2339 28.1504 20.7551 27.0436 23.1533C25.9982 25.4899 24.4302 27.3654 22.3394 28.7798C20.2487 30.1941 17.6353 30.9012 14.4992 30.9012ZM14.4992 25.8281C17.6968 25.8281 19.972 24.9673 21.3248 23.2455C22.6777 21.5237 23.3541 18.9718 23.3541 15.5898C23.3541 12.1462 22.6777 9.56354 21.3248 7.84177C19.972 6.12 17.6968 5.25911 14.4992 5.25911C11.3017 5.25911 9.02645 6.12 7.67363 7.84177C6.3823 9.56354 5.73663 12.1462 5.73663 15.5898C5.73663 18.9718 6.3823 21.5237 7.67363 23.2455C9.02645 24.9673 11.3017 25.8281 14.4992 25.8281ZM51.2099 58.9415C54.4075 58.9415 56.6827 58.0806 58.0355 56.3589C59.3883 54.5756 60.0647 51.993 60.0647 48.6109C60.0647 45.1674 59.3883 42.5847 58.0355 40.8629C56.6827 39.1411 54.4075 38.2803 51.2099 38.2803C48.0738 38.2803 45.8293 39.1411 44.4765 40.8629C43.1237 42.5847 42.4473 45.1674 42.4473 48.6109C42.4473 51.993 43.1237 54.5756 44.4765 56.3589C45.8293 58.0806 48.0738 58.9415 51.2099 58.9415ZM11.3631 63H4.72202L54.4382 1.20065H61.0793L11.3631 63Z" fill="black" fill-opacity="0.2"/>
</svg>
