<svg width="14" height="14" viewBox="0 0 14 14" fill="none" xmlns="http://www.w3.org/2000/svg">
<path d="M6.65374 1.33255C6.78184 1.02457 7.21813 1.02457 7.34623 1.33255L8.76355 4.74019C8.81755 4.87003 8.93965 4.95874 9.07982 4.96998L12.7587 5.26491C13.0912 5.29156 13.226 5.7065 12.9726 5.92351L10.1698 8.32447C10.063 8.41595 10.0163 8.5595 10.049 8.69628L10.9053 12.2862C10.9827 12.6107 10.6297 12.8671 10.345 12.6932L7.19546 10.7695C7.07545 10.6962 6.92452 10.6962 6.80452 10.7695L3.65492 12.6932C3.37026 12.8671 3.01729 12.6107 3.09469 12.2862L3.95101 8.69628C3.98364 8.5595 3.937 8.41595 3.83021 8.32447L1.02732 5.92351C0.773998 5.7065 0.90882 5.29156 1.24131 5.26491L4.92015 4.96998C5.06032 4.95874 5.18242 4.87003 5.23642 4.74019L6.65374 1.33255Z" stroke="black" stroke-opacity="0.87" stroke-linecap="round" stroke-linejoin="round"/>
</svg>
